<svg xmlns="http://www.w3.org/2000/svg" version="1.1" xmlns:xlink="http://www.w3.org/1999/xlink" width="500" height="500"><svg width="500" height="500" viewBox="0 0 500 500" fill="none" xmlns="http://www.w3.org/2000/svg">
<path d="M120.456 132.4V141.36H89.736V222H80.776V141.36H50.12V132.4H120.456ZM122.43 222V158H131.39V166.832C133.651 163.589 136.595 161.008 140.222 159.088C143.849 157.168 147.795 156.208 152.062 156.208C154.537 156.208 156.926 156.528 159.23 157.168L155.582 166.064C153.79 165.509 152.041 165.232 150.334 165.232C146.878 165.232 143.699 166.085 140.798 167.792C137.939 169.499 135.657 171.781 133.95 174.64C132.243 177.499 131.39 180.677 131.39 184.176V222H122.43ZM167.305 158H176.265V222H167.305V158ZM171.849 146.8C170.398 146.8 169.161 146.331 168.137 145.392C167.156 144.411 166.665 143.195 166.665 141.744C166.665 140.293 167.156 139.099 168.137 138.16C169.161 137.179 170.398 136.688 171.849 136.688C173.257 136.688 174.452 137.179 175.433 138.16C176.457 139.099 176.969 140.293 176.969 141.744C176.969 143.195 176.478 144.411 175.497 145.392C174.516 146.331 173.3 146.8 171.849 146.8ZM110.118 376L77.606 286.4H83.43L113.126 368.384L143.014 286.4H148.838L116.198 376H110.118ZM209.528 312H215.032V376H209.528L209.4 362.048C207.181 366.699 203.96 370.475 199.736 373.376C195.512 376.235 190.456 377.664 184.568 377.664C179.917 377.664 175.544 376.789 171.448 375.04C167.395 373.291 163.811 370.859 160.696 367.744C157.624 364.629 155.213 361.045 153.464 356.992C151.715 352.939 150.84 348.565 150.84 343.872C150.84 339.221 151.715 334.869 153.464 330.816C155.213 326.72 157.624 323.136 160.696 320.064C163.768 316.992 167.331 314.581 171.384 312.832C175.437 311.083 179.768 310.208 184.376 310.208C190.349 310.208 195.469 311.659 199.736 314.56C204.003 317.419 207.309 321.195 209.656 325.888L209.528 312ZM184.504 372.224C189.709 372.224 194.147 370.965 197.816 368.448C201.485 365.888 204.28 362.475 206.2 358.208C208.163 353.899 209.144 349.163 209.144 344C209.144 338.709 208.163 333.931 206.2 329.664C204.237 325.355 201.4 321.941 197.688 319.424C194.019 316.907 189.624 315.648 184.504 315.648C179.341 315.648 174.627 316.928 170.36 319.488C166.093 322.005 162.701 325.419 160.184 329.728C157.667 334.037 156.408 338.795 156.408 344C156.408 349.291 157.709 354.069 160.312 358.336C162.915 362.603 166.328 365.995 170.552 368.512C174.819 370.987 179.469 372.224 184.504 372.224ZM282.141 336.832V376H276.637V337.408C276.637 333.397 275.656 329.771 273.693 326.528C271.773 323.243 269.17 320.619 265.885 318.656C262.6 316.693 258.973 315.712 255.005 315.712C250.994 315.712 247.346 316.693 244.061 318.656C240.776 320.619 238.152 323.243 236.189 326.528C234.269 329.771 233.309 333.397 233.309 337.408V376H227.805V312H233.309V322.432C235.613 318.72 238.728 315.755 242.653 313.536C246.578 311.317 250.866 310.208 255.517 310.208C260.424 310.208 264.882 311.403 268.893 313.792C272.946 316.181 276.168 319.403 278.557 323.456C280.946 327.467 282.141 331.925 282.141 336.832ZM342.512 361.6L347.312 364.224C344.453 368.32 340.784 371.584 336.304 374.016C331.867 376.448 327.045 377.664 321.84 377.664C315.952 377.664 310.576 376.149 305.712 373.12C300.891 370.091 297.029 366.037 294.128 360.96C291.269 355.84 289.84 350.187 289.84 344C289.84 339.307 290.672 334.933 292.336 330.88C294 326.784 296.283 323.2 299.184 320.128C302.128 317.013 305.541 314.581 309.424 312.832C313.307 311.083 317.445 310.208 321.84 310.208C327.045 310.208 331.867 311.424 336.304 313.856C340.784 316.288 344.453 319.552 347.312 323.648L342.512 326.272C339.909 322.859 336.752 320.256 333.04 318.464C329.371 316.629 325.637 315.712 321.84 315.712C316.848 315.712 312.347 317.013 308.336 319.616C304.368 322.176 301.211 325.611 298.864 329.92C296.517 334.187 295.344 338.88 295.344 344C295.344 349.163 296.539 353.877 298.928 358.144C301.317 362.411 304.517 365.824 308.528 368.384C312.539 370.901 316.976 372.16 321.84 372.16C326.021 372.16 329.925 371.179 333.552 369.216C337.179 367.253 340.165 364.715 342.512 361.6ZM386.59 377.664C380.702 377.664 375.326 376.149 370.462 373.12C365.641 370.091 361.779 366.037 358.878 360.96C356.019 355.84 354.59 350.187 354.59 344C354.59 339.307 355.422 334.933 357.086 330.88C358.75 326.784 361.033 323.2 363.934 320.128C366.878 317.013 370.291 314.581 374.174 312.832C378.057 311.083 382.195 310.208 386.59 310.208C391.198 310.208 395.443 311.104 399.326 312.896C403.251 314.645 406.643 317.141 409.502 320.384C412.361 323.584 414.558 327.403 416.094 331.84C417.673 336.235 418.441 341.077 418.398 346.368H360.286C360.713 351.317 362.142 355.733 364.574 359.616C367.049 363.456 370.185 366.507 373.982 368.768C377.779 371.029 381.982 372.16 386.59 372.16C391.667 372.16 396.233 370.816 400.286 368.128C404.339 365.44 407.561 361.749 409.95 357.056L415.518 358.336C412.958 364.011 409.097 368.661 403.934 372.288C398.771 375.872 392.99 377.664 386.59 377.664ZM360.158 341.44H412.894C412.681 336.789 411.358 332.501 408.926 328.576C406.537 324.608 403.379 321.429 399.454 319.04C395.571 316.651 391.283 315.456 386.59 315.456C381.854 315.456 377.566 316.629 373.726 318.976C369.886 321.28 366.75 324.416 364.318 328.384C361.929 332.309 360.542 336.661 360.158 341.44Z" fill="#FF7D00"></path>
<path d="M196 144C196 138.477 200.477 134 206 134H427V154H206C200.477 154 196 149.523 196 144Z" fill="url(#paint0_linear_147_212)"></path>
<path d="M196 178C196 172.477 200.477 168 206 168H427V188H206C200.477 188 196 183.523 196 178Z" fill="url(#paint1_linear_147_212)"></path>
<path d="M196 212C196 206.477 200.477 202 206 202H427V222H206C200.477 222 196 217.523 196 212V212Z" fill="url(#paint2_linear_147_212)"></path>
<circle cx="207" cy="144" r="6" fill="white"></circle>
<circle cx="206" cy="178" r="6" fill="white"></circle>
<circle cx="207" cy="212" r="6" fill="white"></circle>
<defs>
<linearGradient id="SvgjsLinearGradient1005" x1="196" y1="144" x2="427" y2="144" gradientUnits="userSpaceOnUse">
<stop stop-color="#FF7D00" stop-opacity="0.8"></stop>
<stop offset="0.25" stop-color="#FF7D00" stop-opacity="0.4"></stop>
<stop offset="1" stop-color="#FF7D00" stop-opacity="0"></stop>
</linearGradient>
<linearGradient id="SvgjsLinearGradient1004" x1="196" y1="178" x2="427" y2="178" gradientUnits="userSpaceOnUse">
<stop stop-color="#FF7D00" stop-opacity="0.8"></stop>
<stop offset="0.25" stop-color="#FF7D00" stop-opacity="0.4"></stop>
<stop offset="1" stop-color="#FF7D00" stop-opacity="0"></stop>
</linearGradient>
<linearGradient id="SvgjsLinearGradient1003" x1="196" y1="212" x2="427" y2="212" gradientUnits="userSpaceOnUse">
<stop stop-color="#FF7D00" stop-opacity="0.8"></stop>
<stop offset="0.25" stop-color="#FF7D00" stop-opacity="0.4"></stop>
<stop offset="1" stop-color="#FF7D00" stop-opacity="0"></stop>
</linearGradient>
</defs>
</svg><style>@media (prefers-color-scheme: light) { :root { filter: none; } }
@media (prefers-color-scheme: dark) { :root { filter: none; } }
</style></svg>